<?xml version="1.0" standalone="no"?>
<!DOCTYPE svg PUBLIC "-//W3C//DTD SVG 20010904//EN"
 "http://www.w3.org/TR/2001/REC-SVG-20010904/DTD/svg10.dtd">
<svg version="1.0" xmlns="http://www.w3.org/2000/svg"
 width="512" height="512" viewBox="0 0 512.000000 512.000000"
 preserveAspectRatio="xMidYMid meet">

<g transform="translate(0.000000,512.000000) scale(0.100000,-0.100000)"
fill="#000000" stroke="none">
<path d="M2330 5110 c-494 -48 -950 -230 -1350 -538 -195 -150 -448 -432 -594
-662 -63 -99 -186 -351 -230 -471 -49 -134 -102 -340 -128 -499 -31 -195 -31
-565 0 -760 45 -276 116 -498 237 -745 132 -269 269 -460 489 -681 221 -220
412 -357 681 -489 247 -121 469 -192 745 -237 195 -31 565 -31 760 0 276 45
498 116 745 237 269 132 460 269 681 489 220 221 357 412 489 681 88 179 132
296 180 476 63 240 78 371 78 649 0 278 -15 409 -78 649 -48 180 -92 297 -180
476 -132 269 -269 460 -489 681 -221 220 -412 357 -681 489 -246 121 -474 193
-740 235 -147 23 -475 34 -615 20z m-598 -1622 c199 -92 248 -358 93 -513
-122 -121 -328 -121 -450 0 -78 78 -111 204 -82 306 57 194 259 289 439 207z
m1920 0 c70 -32 124 -86 157 -157 54 -115 27 -264 -64 -356 -122 -121 -328
-121 -450 0 -78 78 -111 204 -82 306 57 194 259 289 439 207z m-931 -1578
c353 -36 689 -191 941 -433 68 -65 88 -115 70 -176 -23 -77 -81 -121 -157
-121 -47 0 -87 22 -149 80 -249 231 -624 354 -983 320 -284 -26 -559 -142
-738 -310 -22 -21 -58 -50 -79 -64 -125 -84 -286 46 -232 187 17 44 89 115
211 209 310 236 716 348 1116 308z"/>
</g>
</svg>
