<?xml version="1.0" standalone="no"?>
<!DOCTYPE svg PUBLIC "-//W3C//DTD SVG 20010904//EN"
 "http://www.w3.org/TR/2001/REC-SVG-20010904/DTD/svg10.dtd">
<svg version="1.0" xmlns="http://www.w3.org/2000/svg"
 width="512" height="512" viewBox="0 0 512.000000 512.000000"
 preserveAspectRatio="xMidYMid meet">

<g transform="translate(0.000000,512.000000) scale(0.100000,-0.100000)"
fill="#000000" stroke="none">
<path d="M1296 5048 c-31 -28 -153 -251 -203 -372 -33 -80 -37 -101 -38 -176
0 -76 3 -91 30 -139 58 -104 178 -170 291 -158 186 19 314 193 270 366 -33
130 -208 470 -252 490 -38 17 -70 13 -98 -11z"/>
<path d="M2501 5043 c-36 -33 -170 -288 -211 -402 -40 -110 -41 -184 -2 -266
53 -111 147 -170 272 -170 125 0 214 55 270 167 59 119 38 220 -105 496 -82
158 -117 202 -165 202 -19 0 -41 -10 -59 -27z"/>
<path d="M3724 5058 c-44 -21 -228 -385 -254 -502 -21 -95 18 -207 97 -276 61
-54 118 -75 203 -75 122 0 213 56 272 168 19 34 23 58 23 127 0 79 -3 92 -48
195 -60 139 -161 323 -193 353 -27 23 -65 27 -100 10z"/>
<path d="M1121 3932 c-19 -10 -43 -34 -53 -53 -17 -31 -18 -70 -18 -591 l0
-558 300 0 300 0 0 563 c0 540 -1 563 -20 594 -35 58 -57 63 -277 63 -173 0
-203 -2 -232 -18z"/>
<path d="M2333 3935 c-18 -8 -42 -29 -53 -47 -19 -32 -20 -49 -20 -595 l0
-563 300 0 300 0 0 563 c0 546 -1 563 -20 595 -34 55 -65 62 -282 62 -143 -1
-201 -4 -225 -15z"/>
<path d="M3533 3930 c-65 -39 -63 -21 -63 -640 l0 -560 300 0 300 0 0 558 c0
521 -1 560 -18 591 -35 64 -61 71 -287 71 -181 0 -203 -2 -232 -20z"/>
<path d="M649 2370 c-83 -14 -155 -64 -192 -134 -21 -39 -22 -53 -22 -281 0
-237 0 -240 25 -285 16 -28 43 -55 74 -75 44 -27 57 -30 125 -29 64 1 114 12
312 71 280 84 349 97 534 96 171 0 245 -13 516 -93 301 -89 335 -95 539 -95
204 0 238 6 539 95 271 80 345 93 516 93 185 1 256 -12 535 -96 197 -59 247
-70 311 -71 68 -1 81 2 125 29 31 20 58 47 74 75 25 45 25 48 25 285 0 228 -1
242 -22 281 -26 49 -72 90 -133 118 l-45 21 -1895 1 c-1042 1 -1916 -2 -1941
-6z"/>
<path d="M1368 1429 c-72 -9 -181 -38 -468 -125 -110 -33 -138 -38 -232 -38
l-108 -1 0 -457 0 -458 -217 0 c-196 0 -221 -2 -258 -20 -110 -53 -111 -212
-1 -264 31 -15 244 -16 2476 -16 2232 0 2445 1 2476 16 110 52 109 211 -1 264
-37 18 -62 20 -258 20 l-217 0 0 458 0 458 -82 -4 c-91 -4 -107 0 -454 101
-349 102 -452 100 -866 -19 -317 -90 -434 -109 -653 -101 -190 7 -271 22 -525
97 -113 33 -236 67 -275 74 -95 20 -244 26 -337 15z"/>
</g>
</svg>
